<mxfile host="app.diagrams.net" modified="2020-08-26T20:28:02.185Z" agent="5.0 (Windows NT 10.0; Win64; x64) AppleWebKit/537.36 (KHTML, like Gecko) Chrome/84.0.4147.135 Safari/537.36" etag="MuKGbaCA3K0999ckfZ0u" version="13.6.4" type="github">
  <diagram id="kgpKYQtTHZ0yAKxKKP6v" name="Page-1">
    <mxGraphModel dx="2586" dy="964" grid="1" gridSize="10" guides="1" tooltips="1" connect="1" arrows="1" fold="1" page="1" pageScale="1" pageWidth="850" pageHeight="1100" math="0" shadow="0">
      <root>
        <mxCell id="0" />
        <mxCell id="1" parent="0" />
        <mxCell id="3nuBFxr9cyL0pnOWT2aG-1" value="Job Seeking Process" style="shape=table;childLayout=tableLayout;rowLines=0;columnLines=0;startSize=40;html=1;whiteSpace=wrap;collapsible=0;recursiveResize=0;expand=0;fontStyle=0;fontSize=15;" parent="1" vertex="1">
          <mxGeometry x="-130" y="500" width="1450" height="984" as="geometry" />
        </mxCell>
        <mxCell id="3nuBFxr9cyL0pnOWT2aG-3" value="&lt;span style=&quot;font-weight: 400&quot;&gt;Preparation&lt;/span&gt;" style="swimlane;horizontal=0;points=[[0,0.5],[1,0.5]];portConstraint=eastwest;startSize=40;html=1;whiteSpace=wrap;collapsible=0;recursiveResize=0;expand=0;fontSize=15;fillColor=#f5f5f5;strokeColor=#666666;fontColor=#333333;" parent="3nuBFxr9cyL0pnOWT2aG-1" vertex="1">
          <mxGeometry y="40" width="1450" height="400" as="geometry" />
        </mxCell>
        <mxCell id="3nuBFxr9cyL0pnOWT2aG-4" value="&lt;span style=&quot;font-weight: 400&quot;&gt;Rigid Friends&lt;/span&gt;" style="swimlane;connectable=0;startSize=40;html=1;whiteSpace=wrap;collapsible=0;recursiveResize=0;expand=0;fontSize=15;" parent="3nuBFxr9cyL0pnOWT2aG-3" vertex="1">
          <mxGeometry x="40" width="218" height="400" as="geometry" />
        </mxCell>
        <mxCell id="upIJG79H62ulOGl8ITZA-24" style="edgeStyle=orthogonalEdgeStyle;rounded=0;orthogonalLoop=1;jettySize=auto;html=1;entryX=0.5;entryY=0;entryDx=0;entryDy=0;entryPerimeter=0;fontSize=15;fontFamily=Georgia;" parent="3nuBFxr9cyL0pnOWT2aG-4" source="upIJG79H62ulOGl8ITZA-23" target="upIJG79H62ulOGl8ITZA-22" edge="1">
          <mxGeometry relative="1" as="geometry" />
        </mxCell>
        <mxCell id="upIJG79H62ulOGl8ITZA-23" value="Proofread" style="rounded=1;whiteSpace=wrap;html=1;absoluteArcSize=1;arcSize=14;strokeWidth=2;fontSize=15;fontFamily=Georgia;fillColor=#f5f5f5;strokeColor=#666666;fontColor=#333333;" parent="3nuBFxr9cyL0pnOWT2aG-4" vertex="1">
          <mxGeometry x="87.30638046523521" y="199.99649290739242" width="76.37937491407793" height="43.654134471225916" as="geometry" />
        </mxCell>
        <mxCell id="upIJG79H62ulOGl8ITZA-22" value="Is it good?" style="strokeWidth=2;html=1;shape=mxgraph.flowchart.decision;whiteSpace=wrap;fontSize=15;fontFamily=Georgia;fillColor=#f5f5f5;strokeColor=#666666;fontColor=#333333;" parent="3nuBFxr9cyL0pnOWT2aG-4" vertex="1">
          <mxGeometry x="58.519999999999996" y="289.37" width="133.95" height="89.2" as="geometry" />
        </mxCell>
        <mxCell id="3nuBFxr9cyL0pnOWT2aG-8" value="&lt;span style=&quot;font-weight: normal ; font-size: 15px&quot;&gt;Me&lt;/span&gt;" style="swimlane;connectable=0;startSize=40;html=1;whiteSpace=wrap;collapsible=0;recursiveResize=0;expand=0;fontSize=15;" parent="3nuBFxr9cyL0pnOWT2aG-3" vertex="1">
          <mxGeometry x="258" width="673" height="400" as="geometry" />
        </mxCell>
        <mxCell id="upIJG79H62ulOGl8ITZA-30" style="edgeStyle=orthogonalEdgeStyle;rounded=0;orthogonalLoop=1;jettySize=auto;html=1;entryX=0.5;entryY=0;entryDx=0;entryDy=0;fontSize=15;fontFamily=Georgia;" parent="3nuBFxr9cyL0pnOWT2aG-8" source="upIJG79H62ulOGl8ITZA-32" target="upIJG79H62ulOGl8ITZA-33" edge="1">
          <mxGeometry relative="1" as="geometry" />
        </mxCell>
        <mxCell id="upIJG79H62ulOGl8ITZA-32" value="Start seeking" style="strokeWidth=2;html=1;shape=mxgraph.flowchart.start_1;whiteSpace=wrap;fontSize=15;fontFamily=Georgia;fillColor=#f5f5f5;strokeColor=#666666;fontColor=#333333;" parent="3nuBFxr9cyL0pnOWT2aG-8" vertex="1">
          <mxGeometry x="130.54" y="60" width="95.3" height="40" as="geometry" />
        </mxCell>
        <mxCell id="upIJG79H62ulOGl8ITZA-33" value="Prepare CV" style="rounded=1;whiteSpace=wrap;html=1;absoluteArcSize=1;arcSize=14;strokeWidth=2;fontSize=15;fontFamily=Georgia;fillColor=#f5f5f5;strokeColor=#666666;fontColor=#333333;" parent="3nuBFxr9cyL0pnOWT2aG-8" vertex="1">
          <mxGeometry x="139.9963804652354" y="130.00170568561867" width="76.37937491407793" height="31.18152462230423" as="geometry" />
        </mxCell>
        <mxCell id="upIJG79H62ulOGl8ITZA-34" value="Choose position" style="rounded=1;whiteSpace=wrap;html=1;absoluteArcSize=1;arcSize=14;strokeWidth=2;fontSize=15;fontFamily=Georgia;fillColor=#f5f5f5;strokeColor=#666666;fontColor=#333333;" parent="3nuBFxr9cyL0pnOWT2aG-8" vertex="1">
          <mxGeometry x="351.99684536874173" y="312.1473774651136" width="73.32419991751482" height="43.654134471225916" as="geometry" />
        </mxCell>
        <mxCell id="upIJG79H62ulOGl8ITZA-40" value="Summary on failure" style="strokeWidth=2;html=1;shape=mxgraph.flowchart.multi-document;whiteSpace=wrap;fontSize=15;fillColor=#f5f5f5;strokeColor=#666666;fontColor=#333333;" parent="3nuBFxr9cyL0pnOWT2aG-8" vertex="1">
          <mxGeometry x="140" y="350" width="130" height="50" as="geometry" />
        </mxCell>
        <mxCell id="3nuBFxr9cyL0pnOWT2aG-11" value="&lt;span style=&quot;font-weight: normal ; font-size: 15px&quot;&gt;Critical Company&lt;/span&gt;" style="swimlane;connectable=0;startSize=40;html=1;whiteSpace=wrap;collapsible=0;recursiveResize=0;expand=0;fontSize=15;" parent="3nuBFxr9cyL0pnOWT2aG-3" vertex="1">
          <mxGeometry x="931" width="519" height="400" as="geometry" />
        </mxCell>
        <mxCell id="upIJG79H62ulOGl8ITZA-54" value="No" style="edgeStyle=elbowEdgeStyle;rounded=0;orthogonalLoop=1;jettySize=auto;html=1;fontSize=15;fontFamily=Georgia;exitX=0;exitY=0.5;exitDx=0;exitDy=0;exitPerimeter=0;" parent="3nuBFxr9cyL0pnOWT2aG-3" source="upIJG79H62ulOGl8ITZA-22" edge="1">
          <mxGeometry relative="1" as="geometry">
            <Array as="points">
              <mxPoint x="63.14999999999998" y="300" />
            </Array>
            <mxPoint x="2127.15" y="199" as="sourcePoint" />
            <mxPoint x="390" y="146" as="targetPoint" />
          </mxGeometry>
        </mxCell>
        <mxCell id="upIJG79H62ulOGl8ITZA-76" style="edgeStyle=elbowEdgeStyle;rounded=0;orthogonalLoop=1;jettySize=auto;html=1;exitX=0.406;exitY=1.09;exitDx=0;exitDy=0;exitPerimeter=0;elbow=vertical;fontSize=15;" parent="3nuBFxr9cyL0pnOWT2aG-3" source="upIJG79H62ulOGl8ITZA-33" edge="1">
          <mxGeometry relative="1" as="geometry">
            <mxPoint x="204" y="230" as="targetPoint" />
            <Array as="points">
              <mxPoint x="240" y="230" />
              <mxPoint x="340" y="262" />
            </Array>
          </mxGeometry>
        </mxCell>
        <mxCell id="upIJG79H62ulOGl8ITZA-92" value="Yes" style="edgeStyle=elbowEdgeStyle;rounded=0;orthogonalLoop=1;jettySize=auto;html=1;fontSize=15;entryX=0;entryY=0.5;entryDx=0;entryDy=0;exitX=1;exitY=0.5;exitDx=0;exitDy=0;exitPerimeter=0;" parent="3nuBFxr9cyL0pnOWT2aG-3" source="upIJG79H62ulOGl8ITZA-22" target="upIJG79H62ulOGl8ITZA-34" edge="1">
          <mxGeometry relative="1" as="geometry">
            <mxPoint x="627.53" y="339.29" as="targetPoint" />
            <Array as="points">
              <mxPoint x="567.53" y="339.29" />
              <mxPoint x="507.53" y="339.29" />
            </Array>
            <mxPoint x="119.9999999999998" y="339.2899999999998" as="sourcePoint" />
          </mxGeometry>
        </mxCell>
        <mxCell id="3nuBFxr9cyL0pnOWT2aG-15" value="&lt;span style=&quot;font-weight: 400&quot;&gt;Submission and Interviews&lt;/span&gt;" style="swimlane;horizontal=0;points=[[0,0.5],[1,0.5]];portConstraint=eastwest;startSize=40;html=1;whiteSpace=wrap;collapsible=0;recursiveResize=0;expand=0;fontSize=15;fillColor=#dae8fc;strokeColor=#6c8ebf;" parent="3nuBFxr9cyL0pnOWT2aG-1" vertex="1">
          <mxGeometry y="440" width="1450" height="294" as="geometry" />
        </mxCell>
        <mxCell id="3nuBFxr9cyL0pnOWT2aG-16" value="" style="swimlane;connectable=0;startSize=0;html=1;whiteSpace=wrap;collapsible=0;recursiveResize=0;expand=0;fontSize=15;" parent="3nuBFxr9cyL0pnOWT2aG-15" vertex="1">
          <mxGeometry x="40" width="218" height="294" as="geometry" />
        </mxCell>
        <mxCell id="3nuBFxr9cyL0pnOWT2aG-18" value="" style="swimlane;connectable=0;startSize=0;html=1;whiteSpace=wrap;collapsible=0;recursiveResize=0;expand=0;fontSize=15;" parent="3nuBFxr9cyL0pnOWT2aG-15" vertex="1">
          <mxGeometry x="258" width="673" height="294" as="geometry" />
        </mxCell>
        <mxCell id="upIJG79H62ulOGl8ITZA-31" style="edgeStyle=none;rounded=0;orthogonalLoop=1;jettySize=auto;html=1;exitX=0.75;exitY=0;exitDx=0;exitDy=0;fontSize=15;" parent="3nuBFxr9cyL0pnOWT2aG-18" source="upIJG79H62ulOGl8ITZA-39" target="upIJG79H62ulOGl8ITZA-39" edge="1">
          <mxGeometry relative="1" as="geometry" />
        </mxCell>
        <mxCell id="upIJG79H62ulOGl8ITZA-39" value="Submit CV" style="rounded=1;whiteSpace=wrap;html=1;absoluteArcSize=1;arcSize=14;strokeWidth=2;fontSize=15;fontFamily=Georgia;fillColor=#dae8fc;strokeColor=#6c8ebf;" parent="3nuBFxr9cyL0pnOWT2aG-18" vertex="1">
          <mxGeometry x="541.9963922691483" y="23.99565217391296" width="87.0436649964209" height="31.304347826086953" as="geometry" />
        </mxCell>
        <mxCell id="upIJG79H62ulOGl8ITZA-37" value="online assessment phone interviews, interviews...." style="verticalLabelPosition=middle;verticalAlign=middle;html=1;shape=process;whiteSpace=wrap;rounded=1;size=0.14;arcSize=6;labelBackgroundColor=none;sketch=0;fontFamily=Georgia;fontSize=15;labelPosition=center;align=center;labelBorderColor=none;fillColor=#dae8fc;strokeColor=#6c8ebf;" parent="3nuBFxr9cyL0pnOWT2aG-18" vertex="1">
          <mxGeometry x="460" y="110" width="191.02" height="57" as="geometry" />
        </mxCell>
        <mxCell id="3nuBFxr9cyL0pnOWT2aG-23" value="" style="swimlane;connectable=0;startSize=0;html=1;whiteSpace=wrap;collapsible=0;recursiveResize=0;expand=0;fontSize=15;" parent="3nuBFxr9cyL0pnOWT2aG-15" vertex="1">
          <mxGeometry x="931" width="519" height="294" as="geometry" />
        </mxCell>
        <mxCell id="upIJG79H62ulOGl8ITZA-73" value="Yes" style="edgeStyle=none;rounded=0;orthogonalLoop=1;jettySize=auto;html=1;entryX=1;entryY=0.5;entryDx=0;entryDy=0;entryPerimeter=0;fontSize=15;" parent="3nuBFxr9cyL0pnOWT2aG-23" source="upIJG79H62ulOGl8ITZA-46" target="upIJG79H62ulOGl8ITZA-50" edge="1">
          <mxGeometry relative="1" as="geometry" />
        </mxCell>
        <mxCell id="_2vQWqaf_Gft_lo14Nxi-1" value="No" style="edgeStyle=none;rounded=0;orthogonalLoop=1;jettySize=auto;html=1;entryX=1;entryY=0.5;entryDx=0;entryDy=0;fontSize=15;" parent="3nuBFxr9cyL0pnOWT2aG-23" source="upIJG79H62ulOGl8ITZA-50" target="upIJG79H62ulOGl8ITZA-49" edge="1">
          <mxGeometry relative="1" as="geometry" />
        </mxCell>
        <mxCell id="upIJG79H62ulOGl8ITZA-46" value="Pass the current session?" style="rhombus;whiteSpace=wrap;html=1;fontSize=15;fillColor=#dae8fc;strokeColor=#6c8ebf;" parent="3nuBFxr9cyL0pnOWT2aG-23" vertex="1">
          <mxGeometry x="389" y="80.25" width="100" height="116.5" as="geometry" />
        </mxCell>
        <mxCell id="upIJG79H62ulOGl8ITZA-50" value="Is current session the final interview?" style="strokeWidth=2;html=1;shape=mxgraph.flowchart.decision;whiteSpace=wrap;fontSize=15;fillColor=#dae8fc;strokeColor=#6c8ebf;" parent="3nuBFxr9cyL0pnOWT2aG-23" vertex="1">
          <mxGeometry x="199" y="172.5" width="139.5" height="120" as="geometry" />
        </mxCell>
        <mxCell id="upIJG79H62ulOGl8ITZA-49" value="Inform: proceed the next session" style="rounded=1;whiteSpace=wrap;html=1;absoluteArcSize=1;arcSize=14;strokeWidth=2;fontSize=15;fillColor=#dae8fc;strokeColor=#6c8ebf;" parent="3nuBFxr9cyL0pnOWT2aG-23" vertex="1">
          <mxGeometry x="19.999999999999773" y="200" width="100" height="65" as="geometry" />
        </mxCell>
        <mxCell id="upIJG79H62ulOGl8ITZA-60" style="edgeStyle=none;rounded=0;orthogonalLoop=1;jettySize=auto;html=1;fontSize=15;entryX=0;entryY=0.5;entryDx=0;entryDy=0;" parent="3nuBFxr9cyL0pnOWT2aG-15" source="upIJG79H62ulOGl8ITZA-37" edge="1" target="upIJG79H62ulOGl8ITZA-46">
          <mxGeometry relative="1" as="geometry">
            <mxPoint x="1220" y="121" as="targetPoint" />
          </mxGeometry>
        </mxCell>
        <mxCell id="upIJG79H62ulOGl8ITZA-87" style="edgeStyle=elbowEdgeStyle;rounded=0;orthogonalLoop=1;jettySize=auto;html=1;entryX=0.5;entryY=1;entryDx=0;entryDy=0;elbow=vertical;exitX=0;exitY=0.5;exitDx=0;exitDy=0;fontSize=15;" parent="3nuBFxr9cyL0pnOWT2aG-15" source="upIJG79H62ulOGl8ITZA-49" target="upIJG79H62ulOGl8ITZA-37" edge="1">
          <mxGeometry relative="1" as="geometry">
            <Array as="points">
              <mxPoint x="1020" y="233" />
            </Array>
          </mxGeometry>
        </mxCell>
        <mxCell id="fxsmJrYrAtysfk3XhTCx-2" style="edgeStyle=orthogonalEdgeStyle;rounded=0;orthogonalLoop=1;jettySize=auto;html=1;entryX=0.5;entryY=0;entryDx=0;entryDy=0;" edge="1" parent="3nuBFxr9cyL0pnOWT2aG-15" source="upIJG79H62ulOGl8ITZA-39" target="upIJG79H62ulOGl8ITZA-46">
          <mxGeometry relative="1" as="geometry" />
        </mxCell>
        <mxCell id="upIJG79H62ulOGl8ITZA-12" value="Result of Submission" style="swimlane;horizontal=0;points=[[0,0.5],[1,0.5]];portConstraint=eastwest;startSize=40;html=1;whiteSpace=wrap;collapsible=0;recursiveResize=0;expand=0;fontSize=15;fontStyle=0;fillColor=#e1d5e7;strokeColor=#9673a6;" parent="3nuBFxr9cyL0pnOWT2aG-1" vertex="1">
          <mxGeometry y="734" width="1450" height="250" as="geometry" />
        </mxCell>
        <mxCell id="upIJG79H62ulOGl8ITZA-13" value="" style="swimlane;connectable=0;startSize=0;html=1;whiteSpace=wrap;collapsible=0;recursiveResize=0;expand=0;fontSize=15;" parent="upIJG79H62ulOGl8ITZA-12" vertex="1">
          <mxGeometry x="40" width="218" height="250" as="geometry" />
        </mxCell>
        <mxCell id="upIJG79H62ulOGl8ITZA-15" value="" style="swimlane;connectable=0;startSize=0;html=1;whiteSpace=wrap;collapsible=0;recursiveResize=0;expand=0;fontSize=15;" parent="upIJG79H62ulOGl8ITZA-12" vertex="1">
          <mxGeometry x="258" width="673" height="250" as="geometry" />
        </mxCell>
        <mxCell id="upIJG79H62ulOGl8ITZA-28" value="&lt;font face=&quot;georgia&quot;&gt;Retrospect&amp;nbsp;&lt;/font&gt;" style="rounded=1;whiteSpace=wrap;html=1;absoluteArcSize=1;arcSize=14;strokeWidth=2;fontSize=15;fillColor=#e1d5e7;strokeColor=#9673a6;" parent="upIJG79H62ulOGl8ITZA-15" vertex="1">
          <mxGeometry x="165.5" y="70" width="92.58" height="40" as="geometry" />
        </mxCell>
        <mxCell id="upIJG79H62ulOGl8ITZA-81" value="No" style="edgeStyle=elbowEdgeStyle;rounded=0;orthogonalLoop=1;jettySize=auto;elbow=vertical;html=1;entryX=0.5;entryY=1;entryDx=0;entryDy=0;fontSize=15;" parent="upIJG79H62ulOGl8ITZA-15" source="upIJG79H62ulOGl8ITZA-79" target="upIJG79H62ulOGl8ITZA-28" edge="1">
          <mxGeometry relative="1" as="geometry" />
        </mxCell>
        <mxCell id="upIJG79H62ulOGl8ITZA-93" value="Yes" style="edgeStyle=elbowEdgeStyle;rounded=0;orthogonalLoop=1;jettySize=auto;html=1;entryX=1;entryY=0.5;entryDx=0;entryDy=0;entryPerimeter=0;fontSize=15;" parent="upIJG79H62ulOGl8ITZA-15" source="upIJG79H62ulOGl8ITZA-79" target="upIJG79H62ulOGl8ITZA-78" edge="1">
          <mxGeometry relative="1" as="geometry" />
        </mxCell>
        <mxCell id="upIJG79H62ulOGl8ITZA-35" value="Receive offer&amp;nbsp;" style="strokeWidth=2;html=1;shape=mxgraph.flowchart.terminator;whiteSpace=wrap;fontSize=15;fontFamily=Georgia;fillColor=#e1d5e7;strokeColor=#9673a6;" parent="upIJG79H62ulOGl8ITZA-15" vertex="1">
          <mxGeometry x="512.0030350751608" y="136.9973913043478" width="128.38940586972083" height="39.13043478260869" as="geometry" />
        </mxCell>
        <mxCell id="upIJG79H62ulOGl8ITZA-78" value="Give up and reply on parents hahaha" style="strokeWidth=2;html=1;shape=mxgraph.flowchart.terminator;whiteSpace=wrap;fontSize=15;fontFamily=Georgia;fillColor=#e1d5e7;strokeColor=#9673a6;" parent="upIJG79H62ulOGl8ITZA-15" vertex="1">
          <mxGeometry x="20" y="181" width="140" height="51.99" as="geometry" />
        </mxCell>
        <mxCell id="upIJG79H62ulOGl8ITZA-79" value="Failed over 300 Submissions" style="strokeWidth=2;html=1;shape=mxgraph.flowchart.decision;whiteSpace=wrap;fontSize=15;fillColor=#e1d5e7;strokeColor=#9673a6;" parent="upIJG79H62ulOGl8ITZA-15" vertex="1">
          <mxGeometry x="280" y="160" width="150" height="93.49" as="geometry" />
        </mxCell>
        <mxCell id="upIJG79H62ulOGl8ITZA-20" value="" style="swimlane;connectable=0;startSize=0;html=1;whiteSpace=wrap;collapsible=0;recursiveResize=0;expand=0;fontSize=15;" parent="upIJG79H62ulOGl8ITZA-12" vertex="1">
          <mxGeometry x="931" width="519" height="250" as="geometry" />
        </mxCell>
        <mxCell id="upIJG79H62ulOGl8ITZA-68" style="edgeStyle=none;rounded=0;orthogonalLoop=1;jettySize=auto;html=1;exitX=0.5;exitY=1;exitDx=0;exitDy=0;fontSize=15;" parent="upIJG79H62ulOGl8ITZA-20" source="upIJG79H62ulOGl8ITZA-45" target="upIJG79H62ulOGl8ITZA-45" edge="1">
          <mxGeometry relative="1" as="geometry" />
        </mxCell>
        <mxCell id="upIJG79H62ulOGl8ITZA-51" value="Inform: offer the job" style="rounded=1;whiteSpace=wrap;html=1;absoluteArcSize=1;arcSize=14;strokeWidth=2;fontSize=15;fillColor=#e1d5e7;strokeColor=#9673a6;" parent="upIJG79H62ulOGl8ITZA-20" vertex="1">
          <mxGeometry x="179.9199999999998" y="137.00000000000006" width="85.16" height="40" as="geometry" />
        </mxCell>
        <mxCell id="fxsmJrYrAtysfk3XhTCx-4" style="edgeStyle=orthogonalEdgeStyle;rounded=0;orthogonalLoop=1;jettySize=auto;html=1;exitX=0.5;exitY=0;exitDx=0;exitDy=0;entryX=0.75;entryY=0;entryDx=0;entryDy=0;" edge="1" parent="upIJG79H62ulOGl8ITZA-20" source="upIJG79H62ulOGl8ITZA-51" target="upIJG79H62ulOGl8ITZA-51">
          <mxGeometry relative="1" as="geometry" />
        </mxCell>
        <mxCell id="upIJG79H62ulOGl8ITZA-45" value="Inform: not to proceed the next session" style="rounded=1;whiteSpace=wrap;html=1;absoluteArcSize=1;arcSize=14;strokeWidth=2;fontSize=15;fillColor=#e1d5e7;strokeColor=#9673a6;" parent="upIJG79H62ulOGl8ITZA-20" vertex="1">
          <mxGeometry x="381.4199999999998" y="177" width="115.16" height="51" as="geometry" />
        </mxCell>
        <mxCell id="upIJG79H62ulOGl8ITZA-58" style="edgeStyle=none;rounded=0;orthogonalLoop=1;jettySize=auto;html=1;entryX=1;entryY=0.5;entryDx=0;entryDy=0;entryPerimeter=0;fontSize=15;" parent="upIJG79H62ulOGl8ITZA-12" source="upIJG79H62ulOGl8ITZA-51" target="upIJG79H62ulOGl8ITZA-35" edge="1">
          <mxGeometry relative="1" as="geometry" />
        </mxCell>
        <mxCell id="fxsmJrYrAtysfk3XhTCx-3" style="edgeStyle=orthogonalEdgeStyle;rounded=0;orthogonalLoop=1;jettySize=auto;html=1;entryX=1;entryY=0.5;entryDx=0;entryDy=0;entryPerimeter=0;" edge="1" parent="upIJG79H62ulOGl8ITZA-12" source="upIJG79H62ulOGl8ITZA-45" target="upIJG79H62ulOGl8ITZA-79">
          <mxGeometry relative="1" as="geometry" />
        </mxCell>
        <mxCell id="upIJG79H62ulOGl8ITZA-72" value="No" style="edgeStyle=none;rounded=0;orthogonalLoop=1;jettySize=auto;html=1;fontSize=15;" parent="3nuBFxr9cyL0pnOWT2aG-1" source="upIJG79H62ulOGl8ITZA-46" target="upIJG79H62ulOGl8ITZA-45" edge="1">
          <mxGeometry relative="1" as="geometry" />
        </mxCell>
        <mxCell id="upIJG79H62ulOGl8ITZA-67" value="Write" style="edgeStyle=none;rounded=0;orthogonalLoop=1;jettySize=auto;html=1;exitX=0.5;exitY=0;exitDx=0;exitDy=0;fontSize=15;" parent="3nuBFxr9cyL0pnOWT2aG-1" source="upIJG79H62ulOGl8ITZA-28" target="upIJG79H62ulOGl8ITZA-40" edge="1">
          <mxGeometry relative="1" as="geometry">
            <mxPoint x="596.53350683149" y="683.0973451327434" as="sourcePoint" />
          </mxGeometry>
        </mxCell>
        <mxCell id="upIJG79H62ulOGl8ITZA-89" style="edgeStyle=elbowEdgeStyle;rounded=0;orthogonalLoop=1;jettySize=auto;elbow=vertical;html=1;entryX=0.5;entryY=0;entryDx=0;entryDy=0;fontSize=15;" parent="3nuBFxr9cyL0pnOWT2aG-1" source="upIJG79H62ulOGl8ITZA-50" target="upIJG79H62ulOGl8ITZA-51" edge="1">
          <mxGeometry relative="1" as="geometry" />
        </mxCell>
        <mxCell id="upIJG79H62ulOGl8ITZA-91" value="Yes" style="edgeLabel;html=1;align=center;verticalAlign=middle;resizable=0;points=[];fontSize=15;" parent="upIJG79H62ulOGl8ITZA-89" vertex="1" connectable="0">
          <mxGeometry x="0.0065" y="51" relative="1" as="geometry">
            <mxPoint x="-51" y="-5.780000000000001" as="offset" />
          </mxGeometry>
        </mxCell>
        <mxCell id="upIJG79H62ulOGl8ITZA-26" style="edgeStyle=orthogonalEdgeStyle;rounded=0;orthogonalLoop=1;jettySize=auto;html=1;fontSize=15;exitX=1;exitY=0.5;exitDx=0;exitDy=0;" parent="3nuBFxr9cyL0pnOWT2aG-1" source="upIJG79H62ulOGl8ITZA-28" target="upIJG79H62ulOGl8ITZA-34" edge="1">
          <mxGeometry relative="1" as="geometry">
            <mxPoint x="403.61000000000035" y="578.2900000000002" as="sourcePoint" />
          </mxGeometry>
        </mxCell>
        <mxCell id="upIJG79H62ulOGl8ITZA-97" style="rounded=0;orthogonalLoop=1;jettySize=auto;elbow=vertical;html=1;entryX=0.5;entryY=0;entryDx=0;entryDy=0;fontSize=15;exitX=1;exitY=0.5;exitDx=0;exitDy=0;edgeStyle=elbowEdgeStyle;" parent="3nuBFxr9cyL0pnOWT2aG-1" source="upIJG79H62ulOGl8ITZA-34" target="upIJG79H62ulOGl8ITZA-39" edge="1">
          <mxGeometry relative="1" as="geometry">
            <mxPoint x="663" y="480" as="sourcePoint" />
            <mxPoint x="769.0482247673583" y="465.285652173913" as="targetPoint" />
          </mxGeometry>
        </mxCell>
      </root>
    </mxGraphModel>
  </diagram>
</mxfile>
